<?xml version="1.0" standalone="no"?>
<!DOCTYPE svg PUBLIC "-//W3C//DTD SVG 20010904//EN"
 "http://www.w3.org/TR/2001/REC-SVG-20010904/DTD/svg10.dtd">
<svg version="1.0" xmlns="http://www.w3.org/2000/svg"
 width="512.000000pt" height="512.000000pt" viewBox="0 0 512.000000 512.000000"
 preserveAspectRatio="xMidYMid meet">
<metadata>
Created by potrace 1.14, written by Peter Selinger 2001-2017
</metadata>
<g transform="translate(0.000000,512.000000) scale(0.100000,-0.100000)"
fill="#000000" stroke="none">
<path d="M2530 5100 c0 -20 -7 -20 -592 -22 l-593 -3 589 -2 c415 -2 593 -6
603 -14 10 -9 13 -4 13 25 0 20 -4 36 -10 36 -5 0 -10 -9 -10 -20z"/>
<path d="M373 5073 c170 -2 444 -2 610 0 166 1 28 2 -308 2 -335 0 -471 -1
-302 -2z"/>
<path d="M3822 5053 c-1 -12 -9 -28 -17 -37 -13 -13 -15 -87 -13 -563 l3 -548
5 550 5 550 3 -607 2 -608 -597 -2 -598 -3 -3 -617 -2 -618 610 0 c400 0 610
-3 610 -10 0 -13 40 -13 60 0 11 7 5 10 -22 10 l-38 0 -3 1263 c-1 694 -3
1252 -5 1240z m-651 -1722 c16 -16 29 -39 29 -51 0 -12 -13 -35 -29 -51 -16
-16 -39 -29 -51 -29 -28 0 -80 52 -80 80 0 29 49 79 78 80 13 0 37 -13 53 -29z"/>
<path d="M1290 4420 c0 -425 3 -639 10 -635 6 4 10 227 10 635 0 408 -4 631
-10 635 -7 4 -10 -210 -10 -635z"/>
<path d="M42 4463 c-2 -586 -2 -593 -22 -593 -11 0 -20 -4 -20 -10 0 -5 16
-10 36 -10 29 0 34 3 25 13 -8 10 -12 188 -14 603 l-2 589 -3 -592z"/>
<path d="M1325 4445 c0 -335 1 -471 2 -302 2 170 2 444 0 610 -1 166 -2 28 -2
-308z"/>
<path d="M5072 4458 c2 -304 4 -465 5 -358 7 502 7 910 1 910 -5 0 -7 -249 -6
-552z"/>
<path d="M1880 4820 c-6 -12 -21 -20 -36 -20 -33 0 -84 -51 -84 -84 0 -15 -8
-30 -21 -36 -17 -10 -20 -19 -17 -63 l3 -52 75 0 75 0 3 49 c3 38 10 55 32 77
36 37 64 37 101 0 23 -23 29 -38 29 -71 0 -60 -40 -98 -106 -102 l-49 -3 0
-55 0 -55 49 -3 c38 -3 55 -10 77 -32 26 -25 29 -36 29 -90 0 -55 -3 -65 -29
-91 -37 -37 -65 -37 -101 0 -22 22 -29 39 -32 77 l-3 49 -75 0 -75 0 -3 -67
-3 -68 70 -70 70 -70 101 0 101 0 69 70 70 69 0 102 0 102 -42 40 -43 39 23
15 c21 15 22 22 22 140 0 124 0 125 -29 154 -17 17 -40 29 -55 29 -15 0 -30 8
-36 20 -9 17 -21 20 -80 20 -59 0 -71 -3 -80 -20z"/>
<path d="M598 4809 c-10 -10 -27 -19 -38 -19 -25 0 -70 -45 -70 -70 0 -11 -9
-29 -20 -40 -14 -14 -20 -33 -20 -65 l0 -45 70 0 c68 0 70 1 70 25 0 31 61 95
90 95 11 0 36 -16 55 -35 28 -28 35 -42 35 -75 0 -27 -7 -47 -20 -60 -11 -11
-20 -29 -20 -41 0 -26 -102 -129 -129 -129 -26 0 -71 -45 -71 -70 0 -11 -9
-29 -20 -40 -11 -11 -20 -29 -20 -40 0 -11 -9 -29 -20 -40 -14 -14 -20 -33
-20 -65 l0 -45 230 0 230 0 0 50 0 49 -132 3 c-119 3 -133 5 -136 21 -3 12 39
61 132 154 l136 135 0 99 c0 86 -3 102 -20 119 -11 11 -20 29 -20 40 0 25 -45
70 -70 70 -11 0 -29 9 -40 20 -28 28 -137 27 -162 -1z"/>
<path d="M2670 3883 c0 -7 408 -7 910 0 107 1 -54 3 -357 5 -304 1 -553 -1
-553 -5z"/>
<path d="M3950 3880 c0 -5 -15 -14 -32 -19 -22 -6 182 -10 585 -10 405 -1 617
2 617 9 0 7 -202 11 -582 12 l-583 3 550 5 550 5 -552 3 c-353 1 -553 -2 -553
-8z"/>
<path d="M2630 3839 c0 -5 5 -7 10 -4 6 3 10 8 10 11 0 2 -4 4 -10 4 -5 0 -10
-5 -10 -11z"/>
<path d="M1345 3820 c8 -13 1244 -13 1265 0 10 6 -209 10 -628 10 -426 0 -641
-3 -637 -10z"/>
<path d="M1653 3793 c170 -2 444 -2 610 0 166 1 28 2 -308 2 -335 0 -471 -1
-302 -2z"/>
<path d="M2570 3166 l0 -616 -616 0 c-407 0 -613 -3 -609 -10 4 -6 218 -10
609 -10 571 0 604 1 619 18 15 17 17 74 17 620 0 390 -4 603 -10 607 -7 4 -10
-202 -10 -609z"/>
<path d="M1270 3759 c0 -5 5 -7 10 -4 6 3 10 8 10 11 0 2 -4 4 -10 4 -5 0 -10
-5 -10 -11z"/>
<path d="M1325 3165 c0 -335 1 -471 2 -302 2 170 2 444 0 610 -1 166 -2 28 -2
-308z"/>
<path d="M1232 3178 c2 -304 4 -465 5 -358 7 502 7 910 1 910 -5 0 -7 -249 -6
-552z"/>
<path d="M5072 3178 c2 -304 4 -465 5 -358 7 502 7 910 1 910 -5 0 -7 -249 -6
-552z"/>
<path d="M600 3581 c-7 -14 -21 -21 -40 -21 -19 0 -33 -7 -40 -20 -7 -13 -21
-20 -40 -20 -19 0 -33 -7 -40 -20 -6 -12 -21 -20 -36 -20 -31 0 -84 -50 -84
-80 0 -30 53 -80 84 -80 15 0 30 -8 36 -20 7 -13 21 -20 40 -20 19 0 33 -7 40
-20 6 -12 21 -20 37 -20 15 0 36 -11 49 -26 22 -22 24 -34 24 -113 l0 -89 -34
-6 c-19 -4 -36 -13 -39 -20 -4 -9 -29 -15 -77 -18 -52 -3 -74 -8 -81 -20 -5
-9 -24 -19 -43 -22 -28 -5 -36 -12 -41 -36 -10 -45 3 -87 28 -94 12 -3 146 -6
297 -6 151 0 285 3 297 6 25 7 38 49 28 94 -5 24 -13 31 -41 36 -19 3 -38 13
-43 21 -4 9 -29 17 -57 20 -32 4 -57 14 -72 29 -22 22 -23 28 -30 311 l-7 288
-52 3 c-44 3 -53 0 -63 -17z"/>
<path d="M1878 3529 c-10 -10 -27 -19 -38 -19 -25 0 -70 -45 -70 -70 0 -11 -9
-29 -20 -40 -14 -14 -20 -33 -20 -65 l0 -45 70 0 c68 0 70 1 70 25 0 31 61 95
90 95 11 0 36 -16 55 -35 28 -28 35 -42 35 -75 0 -27 -7 -47 -20 -60 -11 -11
-20 -29 -20 -41 0 -26 -102 -129 -129 -129 -26 0 -71 -45 -71 -70 0 -11 -9
-29 -20 -40 -11 -11 -20 -29 -20 -40 0 -11 -9 -29 -20 -40 -14 -14 -20 -33
-20 -65 l0 -45 230 0 230 0 0 50 0 49 -132 3 c-119 3 -133 5 -136 21 -3 12 39
61 132 154 l136 135 0 99 c0 86 -3 102 -20 119 -11 11 -20 29 -20 40 0 25 -45
70 -70 70 -11 0 -29 9 -40 20 -28 28 -137 27 -162 -1z"/>
<path d="M110 2603 c0 -7 408 -7 910 0 107 1 -54 3 -357 5 -304 1 -553 -1
-553 -5z"/>
<path d="M3950 2603 c0 -7 408 -7 910 0 107 1 -54 3 -357 5 -304 1 -553 -1
-553 -5z"/>
<path d="M70 2559 c0 -5 5 -7 10 -4 6 3 10 8 10 11 0 2 -4 4 -10 4 -5 0 -10
-5 -10 -11z"/>
<path d="M3910 2559 c0 -5 5 -7 10 -4 6 3 10 8 10 11 0 2 -4 4 -10 4 -5 0 -10
-5 -10 -11z"/>
<path d="M0 2540 c0 -13 30 -13 50 0 11 7 7 10 -17 10 -18 0 -33 -4 -33 -10z"/>
<path d="M373 2513 c170 -2 444 -2 610 0 166 1 28 2 -308 2 -335 0 -471 -1
-302 -2z"/>
<path d="M1653 2513 c170 -2 444 -2 610 0 166 1 28 2 -308 2 -335 0 -471 -1
-302 -2z"/>
<path d="M2933 2513 c170 -2 444 -2 610 0 166 1 28 2 -308 2 -335 0 -471 -1
-302 -2z"/>
<path d="M4213 2513 c170 -2 444 -2 610 0 166 1 28 2 -308 2 -335 0 -471 -1
-302 -2z"/>
<path d="M1290 1896 l0 -606 32 0 c25 0 29 3 20 12 -9 9 -13 159 -14 603 l-3
590 -5 -595 -5 -595 -3 592 c-1 381 -6 594 -12 598 -7 4 -10 -198 -10 -599z"/>
<path d="M2570 1860 c0 -425 3 -639 10 -635 6 4 10 227 10 635 0 408 -4 631
-10 635 -7 4 -10 -210 -10 -635z"/>
<path d="M3850 1886 l0 -616 -616 0 c-407 0 -613 -3 -609 -10 4 -6 218 -10
609 -10 571 0 604 1 619 18 15 17 17 74 17 620 0 390 -4 603 -10 607 -7 4 -10
-202 -10 -609z"/>
<path d="M45 1885 c0 -335 1 -471 2 -302 2 170 2 444 0 610 -1 166 -2 28 -2
-308z"/>
<path d="M2605 1885 c0 -335 1 -471 2 -302 2 170 2 444 0 610 -1 166 -2 28 -2
-308z"/>
<path d="M3885 1885 c0 -335 1 -471 2 -302 2 170 2 444 0 610 -1 166 -2 28 -2
-308z"/>
<path d="M1880 2260 c-6 -12 -21 -20 -36 -20 -15 0 -38 -12 -55 -29 -17 -17
-29 -40 -29 -55 0 -15 -8 -30 -21 -36 -17 -10 -20 -19 -17 -63 l3 -52 75 0 75
0 3 49 c3 38 10 55 32 77 36 37 64 37 101 0 23 -23 29 -38 29 -71 0 -60 -40
-98 -106 -102 l-49 -3 0 -55 0 -55 49 -3 c38 -3 55 -10 77 -32 26 -25 29 -36
29 -90 0 -55 -3 -65 -29 -91 -37 -37 -65 -37 -101 0 -22 22 -29 39 -32 77 l-3
49 -75 0 -75 0 -3 -67 -3 -68 70 -70 70 -70 101 0 101 0 69 70 70 69 0 102 0
102 -42 40 -43 39 23 15 c21 15 22 22 22 140 0 124 0 125 -29 154 -17 17 -40
29 -55 29 -15 0 -30 8 -36 20 -9 17 -21 20 -80 20 -59 0 -71 -3 -80 -20z"/>
<path d="M598 2249 c-10 -10 -27 -19 -38 -19 -25 0 -70 -45 -70 -70 0 -11 -9
-29 -20 -40 -14 -14 -20 -33 -20 -65 l0 -45 70 0 c68 0 70 1 70 25 0 31 61 95
90 95 11 0 36 -16 55 -35 28 -28 35 -42 35 -75 0 -27 -7 -47 -20 -60 -11 -11
-20 -29 -20 -41 0 -26 -102 -129 -129 -129 -26 0 -71 -45 -71 -70 0 -11 -9
-29 -20 -40 -11 -11 -20 -29 -20 -40 0 -11 -9 -29 -20 -40 -14 -14 -20 -33
-20 -65 l0 -45 230 0 230 0 0 50 0 49 -132 3 c-119 3 -133 5 -136 21 -3 12 39
61 132 154 l136 135 0 99 c0 86 -3 102 -20 119 -11 11 -20 29 -20 40 0 25 -45
70 -70 70 -11 0 -29 9 -40 20 -28 28 -137 27 -162 -1z"/>
<path d="M3158 2249 c-10 -10 -27 -19 -38 -19 -25 0 -70 -45 -70 -70 0 -11 -9
-29 -20 -40 -14 -14 -20 -33 -20 -65 l0 -45 70 0 c68 0 70 1 70 25 0 31 61 95
90 95 11 0 36 -16 55 -35 28 -28 35 -42 35 -75 0 -27 -7 -47 -20 -60 -11 -11
-20 -29 -20 -41 0 -26 -102 -129 -129 -129 -26 0 -71 -45 -71 -70 0 -11 -9
-29 -20 -40 -11 -11 -20 -29 -20 -40 0 -11 -9 -29 -20 -40 -14 -14 -20 -33
-20 -65 l0 -45 230 0 230 0 0 50 0 49 -132 3 c-119 3 -133 5 -136 21 -3 12 39
61 132 154 l136 135 0 99 c0 86 -3 102 -20 119 -11 11 -20 29 -20 40 0 25 -45
70 -70 70 -11 0 -29 9 -40 20 -28 28 -137 27 -162 -1z"/>
<path d="M4447 2234 c-4 -4 -7 -17 -7 -29 0 -27 -18 -45 -47 -45 -12 0 -26 -7
-31 -16 -5 -9 -24 -19 -43 -23 -31 -6 -34 -10 -34 -41 l0 -35 67 -3 c38 -2 71
-8 77 -16 7 -8 12 -108 13 -277 l3 -264 75 0 75 0 0 375 0 375 -70 3 c-39 1
-74 0 -78 -4z"/>
<path d="M65 1260 c4 -6 217 -11 598 -12 l592 -3 -595 -5 -595 -5 590 -3 c444
-1 594 -5 603 -14 9 -9 12 -5 12 20 l0 32 -606 0 c-401 0 -603 -3 -599 -10z"/>
<path d="M3905 1260 c4 -6 218 -10 611 -10 396 0 604 3 604 10 0 7 -210 10
-611 10 -404 0 -608 -3 -604 -10z"/>
<path d="M2933 1233 c170 -2 444 -2 610 0 166 1 28 2 -308 2 -335 0 -471 -1
-302 -2z"/>
<path d="M4213 1233 c170 -2 444 -2 610 0 166 1 28 2 -308 2 -335 0 -471 -1
-302 -2z"/>
<path d="M3850 611 c0 -401 3 -611 10 -611 14 0 14 1206 0 1215 -7 4 -10 -200
-10 -604z"/>
<path d="M45 605 c0 -335 1 -471 2 -302 2 170 2 444 0 610 -1 166 -2 28 -2
-308z"/>
<path d="M2550 1199 c0 -5 5 -7 10 -4 6 3 10 8 10 11 0 2 -4 4 -10 4 -5 0 -10
-5 -10 -11z"/>
<path d="M2605 605 c0 -335 1 -471 2 -302 2 170 2 444 0 610 -1 166 -2 28 -2
-308z"/>
<path d="M3885 605 c0 -335 1 -471 2 -302 2 170 2 444 0 610 -1 166 -2 28 -2
-308z"/>
<path d="M2512 618 c2 -304 4 -465 5 -358 7 502 7 910 1 910 -5 0 -7 -249 -6
-552z"/>
<path d="M1880 1021 c-7 -14 -21 -21 -40 -21 -19 0 -33 -7 -40 -20 -7 -13 -21
-20 -40 -20 -19 0 -33 -7 -40 -20 -6 -12 -21 -20 -36 -20 -31 0 -84 -50 -84
-80 0 -30 53 -80 84 -80 15 0 30 -8 36 -20 7 -13 21 -20 40 -20 19 0 33 -7 40
-20 6 -12 21 -20 37 -20 15 0 36 -11 49 -26 22 -22 24 -34 24 -113 l0 -89 -34
-6 c-19 -4 -36 -13 -39 -20 -4 -9 -29 -15 -77 -18 -52 -3 -74 -8 -81 -20 -5
-9 -24 -19 -43 -22 -28 -5 -36 -12 -41 -36 -10 -45 3 -87 28 -94 12 -3 146 -6
297 -6 151 0 285 3 297 6 25 7 38 49 28 94 -5 24 -13 31 -41 36 -19 3 -38 13
-43 21 -4 9 -29 17 -57 20 -32 4 -57 14 -72 29 -22 22 -23 28 -30 311 l-7 288
-52 3 c-44 3 -53 0 -63 -17z"/>
<path d="M598 969 c-10 -10 -27 -19 -38 -19 -25 0 -70 -45 -70 -70 0 -11 -9
-29 -20 -40 -14 -14 -20 -33 -20 -65 l0 -45 70 0 c68 0 70 1 70 25 0 31 61 95
90 95 11 0 36 -16 55 -35 28 -28 35 -42 35 -75 0 -27 -7 -47 -20 -60 -11 -11
-20 -29 -20 -41 0 -26 -102 -129 -129 -129 -26 0 -71 -45 -71 -70 0 -11 -9
-29 -20 -40 -11 -11 -20 -29 -20 -40 0 -11 -9 -29 -20 -40 -14 -14 -20 -33
-20 -65 l0 -45 230 0 230 0 0 50 0 49 -132 3 c-119 3 -133 5 -136 21 -3 12 39
61 132 154 l136 135 0 99 c0 86 -3 102 -20 119 -11 11 -20 29 -20 40 0 25 -45
70 -70 70 -11 0 -29 9 -40 20 -28 28 -137 27 -162 -1z"/>
<path d="M3158 969 c-10 -10 -27 -19 -38 -19 -25 0 -70 -45 -70 -70 0 -11 -9
-29 -20 -40 -14 -14 -20 -33 -20 -65 l0 -45 70 0 c68 0 70 1 70 25 0 31 61 95
90 95 11 0 36 -16 55 -35 28 -28 35 -42 35 -75 0 -27 -7 -47 -20 -60 -11 -11
-20 -29 -20 -41 0 -26 -102 -129 -129 -129 -26 0 -71 -45 -71 -70 0 -11 -9
-29 -20 -40 -11 -11 -20 -29 -20 -40 0 -11 -9 -29 -20 -40 -14 -14 -20 -33
-20 -65 l0 -45 230 0 230 0 0 50 0 49 -132 3 c-119 3 -133 5 -136 21 -3 12 39
61 132 154 l136 135 0 99 c0 86 -3 102 -20 119 -11 11 -20 29 -20 40 0 25 -45
70 -70 70 -11 0 -29 9 -40 20 -28 28 -137 27 -162 -1z"/>
<path d="M1390 43 c0 -7 408 -7 910 0 107 1 -54 3 -357 5 -304 1 -553 -1 -553
-5z"/>
</g>
</svg>
